<?xml version="1.0" encoding="UTF-8"?>
<svg id="Logos" xmlns="http://www.w3.org/2000/svg" viewBox="0 0 928.19 366.17">
  <defs>
    <style>
      .cls-1 {
        fill: #fff;
      }
    </style>
  </defs>
  <path class="cls-1" d="M332.73,110.35h-16.12v50.84l15.76-.35c20.9-.36,32.24-8.68,32.24-25.86,0-15.76-11.16-24.62-31.88-24.62M331.66,171.46l-15.06.17v38.97h-11.34v-110.71h27.81c29.23,0,43.22,14.17,43.22,34.54,0,24.27-17.18,36.67-44.64,37.02"/>
  <path class="cls-1" d="M427.34,209.72l-6.56,17.53c-7.44,19.84-15.23,25.51-26.21,25.51-6.2,0-10.8-1.59-15.76-3.72l3.37-10.1c3.9,2.13,7.97,3.54,12.4,3.54,6.2,0,10.81-3.37,16.65-18.77l5.49-14.35-31.71-79.89h11.87l25.51,66.96,24.98-66.96h11.51l-31.53,80.24Z"/>
  <polygon class="cls-1" points="496.26 110.53 496.26 210.61 484.92 210.61 484.92 110.53 445.96 110.53 445.96 99.9 535.23 99.9 535.23 110.53 496.26 110.53"/>
  <g>
    <path class="cls-1" d="M567.61,137.1c-17.18,0-28.52,13.64-28.52,32.77s11.51,33.12,28.7,33.12,28.52-13.64,28.52-32.77-11.51-33.12-28.7-33.12M567.26,212.91c-22.5,0-39.15-16.65-39.15-42.69s17.36-43.04,40.03-43.04,38.97,16.65,38.97,42.69-17.36,43.04-39.85,43.04"/>
    <path class="cls-1" d="M634.75,210.61h-10.98v-81.13l10.98-2.3v17.36c5.31-10.45,13.28-17.36,23.91-17.36,5.32,0,10.45,1.59,14.17,3.72l-2.84,10.27c-3.54-2.12-7.79-3.54-12.4-3.54-8.5,0-16.47,6.38-22.85,20.9v52.08Z"/>
    <path class="cls-1" d="M716.12,212.91c-24.45,0-39.68-17.54-39.68-42.69s16.83-43.04,39.85-43.04c9.92,0,18.42,2.48,25.33,6.91l-2.84,9.92c-6.2-4.07-13.99-6.55-22.5-6.55-17.54,0-28.52,13.11-28.52,32.41s11.51,32.77,28.69,32.77c8.15,0,16.3-2.66,22.5-6.73l2.3,10.1c-6.91,4.25-15.76,6.91-25.15,6.91"/>
    <path class="cls-1" d="M809.52,210.61v-52.43c0-14.17-5.67-20.55-17.36-20.55-9.39,0-18.42,4.79-25.15,11.51v61.47h-10.98v-119.39l10.98-2.3v51.19c8.5-8.5,19.13-12.93,28.16-12.93,15.76,0,25.33,10.1,25.33,27.81v55.62h-10.98Z"/>
  </g>
  <g>
    <path class="cls-1" d="M483.27,276.28v-50h32.22v4.03h-27.5v18.06h25v4.03h-25v23.89h-4.72Z"/>
    <path class="cls-1" d="M536.05,277.25c-2.32-.05-4.48-.46-6.49-1.25-2.01-.79-3.77-1.97-5.28-3.54-1.51-1.57-2.7-3.54-3.58-5.9-.88-2.36-1.32-5.12-1.32-8.26,0-2.64.35-5.1,1.04-7.4.69-2.29,1.74-4.29,3.13-6.01,1.39-1.71,3.13-3.07,5.21-4.06,2.08-.99,4.51-1.49,7.29-1.49s5.28.5,7.36,1.49c2.08,1,3.82,2.34,5.21,4.03,1.39,1.69,2.42,3.69,3.09,6.01.67,2.32,1.01,4.79,1.01,7.43,0,2.87-.39,5.46-1.18,7.78-.79,2.32-1.91,4.31-3.37,5.97-1.46,1.67-3.22,2.95-5.28,3.85-2.06.9-4.34,1.35-6.84,1.35ZM548.28,258.29c0-2.13-.23-4.12-.69-5.97-.46-1.85-1.18-3.46-2.15-4.83-.97-1.37-2.22-2.44-3.75-3.23-1.53-.79-3.4-1.18-5.62-1.18s-4.04.43-5.59,1.29c-1.55.86-2.81,1.99-3.78,3.4-.97,1.41-1.69,3.03-2.15,4.86-.46,1.83-.69,3.72-.69,5.66,0,2.22.27,4.27.8,6.15.53,1.88,1.31,3.48,2.33,4.83,1.02,1.34,2.29,2.39,3.82,3.13,1.53.74,3.29,1.11,5.28,1.11,2.18,0,4.04-.43,5.59-1.28,1.55-.86,2.81-2,3.78-3.44.97-1.43,1.69-3.06,2.15-4.86.46-1.81.69-3.68.69-5.63Z"/>
    <path class="cls-1" d="M584.74,240.3h4.17v35.97h-4.17v-5c-.56.65-1.18,1.32-1.88,2.01-.69.69-1.49,1.33-2.4,1.91-.9.58-1.96,1.07-3.16,1.46-1.2.39-2.59.59-4.17.59-2.41,0-4.42-.34-6.04-1.01-1.62-.67-2.93-1.61-3.92-2.81-1-1.2-1.71-2.6-2.15-4.2-.44-1.6-.66-3.34-.66-5.24v-23.68h4.17v23.61c0,3.1.72,5.48,2.15,7.12,1.43,1.64,3.8,2.47,7.08,2.47,1.71,0,3.25-.34,4.62-1.01,1.37-.67,2.51-1.61,3.44-2.81.93-1.2,1.64-2.64,2.15-4.31.51-1.67.76-3.5.76-5.49v-19.58Z"/>
    <path class="cls-1" d="M603.14,276.28h-4.17v-35.97h4.17v5c1.67-1.76,3.39-3.19,5.17-4.31,1.78-1.11,3.92-1.67,6.42-1.67,2.22,0,4.28.38,6.18,1.15,1.9.76,3.49,2.1,4.79,3.99.88,1.3,1.4,2.63,1.56,3.99.16,1.37.24,2.79.24,4.27v23.54h-4.17v-23.47c0-3.24-.72-5.67-2.15-7.29-1.44-1.62-3.82-2.43-7.15-2.43-1.3,0-2.48.2-3.54.59-1.07.39-2.03.91-2.88,1.56-.86.65-1.59,1.39-2.19,2.22-.6.83-1.07,1.71-1.39,2.64-.42,1.16-.67,2.27-.76,3.33-.09,1.07-.14,2.22-.14,3.47v19.38Z"/>
    <path class="cls-1" d="M665.36,226.28h4.17v50h-4.17v-6.32h-.14c-.6,1.2-1.38,2.26-2.33,3.16-.95.9-1.99,1.66-3.13,2.26-1.14.6-2.3,1.06-3.51,1.39-1.2.32-2.39.49-3.54.49-2.92,0-5.39-.49-7.43-1.46-2.04-.97-3.72-2.3-5.03-3.99-1.32-1.69-2.28-3.69-2.88-6.01-.6-2.31-.9-4.79-.9-7.43,0-2.5.32-4.91.97-7.22.65-2.31,1.63-4.34,2.95-6.08,1.32-1.74,2.99-3.13,5-4.17,2.01-1.04,4.39-1.56,7.12-1.56,2.55,0,4.99.57,7.33,1.7,2.34,1.14,4.18,2.81,5.52,5.03v-19.79ZM665.36,258.15c0-2.04-.28-3.97-.83-5.8-.56-1.83-1.35-3.43-2.4-4.79-1.04-1.37-2.32-2.45-3.82-3.26-1.51-.81-3.21-1.22-5.1-1.22-2.18,0-4.05.43-5.63,1.29-1.57.86-2.87,2.03-3.89,3.51-1.02,1.48-1.76,3.21-2.22,5.17-.46,1.97-.65,4.09-.56,6.35,0,2.27.31,4.27.94,6.01.63,1.74,1.49,3.21,2.6,4.41,1.11,1.2,2.41,2.12,3.89,2.74,1.48.63,3.1.94,4.86.94,1.94,0,3.68-.39,5.21-1.18,1.53-.79,2.8-1.86,3.82-3.23,1.02-1.36,1.79-2.99,2.33-4.86.53-1.88.8-3.9.8-6.08Z"/>
    <path class="cls-1" d="M696.54,255.3c.79-.09,1.72-.23,2.81-.42,1.09-.18,1.98-.44,2.67-.76.69-.32,1.12-.87,1.29-1.63.16-.76.24-1.47.24-2.12,0-2.13-.68-3.88-2.05-5.24-1.37-1.36-3.67-2.05-6.91-2.05-1.44,0-2.76.13-3.96.38-1.2.25-2.26.69-3.16,1.32s-1.64,1.46-2.22,2.5c-.58,1.04-.96,2.35-1.15,3.92h-4.24c.14-2.13.63-3.95,1.46-5.45.83-1.5,1.91-2.73,3.23-3.68,1.32-.95,2.85-1.64,4.58-2.08,1.74-.44,3.58-.66,5.52-.66,1.81,0,3.51.2,5.1.59,1.6.39,2.99,1.02,4.17,1.88,1.18.86,2.11,2,2.78,3.44.67,1.44,1.01,3.19,1.01,5.28v19.58c0,1.62.29,2.65.87,3.09.58.44,1.75.34,3.51-.31v3.26c-.33.09-.8.23-1.42.42-.62.18-1.24.28-1.84.28-.65,0-1.27-.07-1.88-.21-.69-.09-1.25-.31-1.67-.66-.42-.35-.75-.76-1.01-1.25s-.43-1.02-.52-1.6c-.09-.58-.14-1.19-.14-1.84-1.76,1.94-3.77,3.43-6.04,4.44-2.27,1.02-4.72,1.53-7.36,1.53-1.57,0-3.09-.21-4.55-.63-1.46-.42-2.74-1.06-3.85-1.94-1.11-.88-1.99-1.96-2.64-3.23-.65-1.27-.97-2.79-.97-4.55,0-6.11,4.19-9.72,12.57-10.83l5.76-.76ZM703.56,257.39c-1.76.74-3.54,1.23-5.35,1.46-1.81.23-3.61.42-5.42.56-3.19.23-5.68.95-7.47,2.15-1.78,1.2-2.67,3.03-2.67,5.49,0,1.11.22,2.07.66,2.88.44.81,1.02,1.48,1.74,2.01.72.53,1.55.93,2.5,1.18.95.25,1.91.38,2.88.38,1.67,0,3.29-.21,4.86-.62,1.57-.42,2.97-1.05,4.2-1.91,1.23-.86,2.21-1.94,2.95-3.26.74-1.32,1.11-2.88,1.11-4.69v-5.63Z"/>
    <path class="cls-1" d="M731.27,276.42c-.51.09-1.18.25-2.01.49-.83.23-1.76.35-2.78.35-2.08,0-3.67-.52-4.76-1.56-1.09-1.04-1.63-2.91-1.63-5.59v-26.32h-5.07v-3.47h5.07v-10h4.17v10h6.74v3.47h-6.74v24.65c0,.88.02,1.64.07,2.29.04.65.18,1.18.42,1.6.23.42.59.72,1.08.9.49.19,1.17.28,2.05.28.56,0,1.12-.05,1.7-.14.58-.09,1.15-.21,1.7-.35v3.4Z"/>
    <path class="cls-1" d="M738.35,232.46v-6.18h4.58v6.18h-4.58ZM738.56,276.28v-35.97h4.17v35.97h-4.17Z"/>
    <path class="cls-1" d="M767.66,277.25c-2.32-.05-4.48-.46-6.49-1.25-2.01-.79-3.77-1.97-5.28-3.54-1.51-1.57-2.7-3.54-3.58-5.9-.88-2.36-1.32-5.12-1.32-8.26,0-2.64.35-5.1,1.04-7.4.69-2.29,1.74-4.29,3.13-6.01,1.39-1.71,3.13-3.07,5.21-4.06,2.08-.99,4.51-1.49,7.29-1.49s5.28.5,7.36,1.49c2.08,1,3.82,2.34,5.21,4.03,1.39,1.69,2.42,3.69,3.09,6.01.67,2.32,1.01,4.79,1.01,7.43,0,2.87-.39,5.46-1.18,7.78-.79,2.32-1.91,4.31-3.37,5.97-1.46,1.67-3.22,2.95-5.28,3.85-2.06.9-4.34,1.35-6.84,1.35ZM779.88,258.29c0-2.13-.23-4.12-.69-5.97-.46-1.85-1.18-3.46-2.15-4.83-.97-1.37-2.22-2.44-3.75-3.23-1.53-.79-3.4-1.18-5.62-1.18s-4.04.43-5.59,1.29c-1.55.86-2.81,1.99-3.78,3.4-.97,1.41-1.69,3.03-2.15,4.86-.46,1.83-.69,3.72-.69,5.66,0,2.22.27,4.27.8,6.15.53,1.88,1.31,3.48,2.33,4.83,1.02,1.34,2.29,2.39,3.82,3.13,1.53.74,3.29,1.11,5.28,1.11,2.18,0,4.04-.43,5.59-1.28,1.55-.86,2.81-2,3.78-3.44.97-1.43,1.69-3.06,2.15-4.86.46-1.81.69-3.68.69-5.63Z"/>
    <path class="cls-1" d="M796.13,276.28h-4.17v-35.97h4.17v5c1.67-1.76,3.39-3.19,5.17-4.31,1.78-1.11,3.92-1.67,6.42-1.67,2.22,0,4.28.38,6.18,1.15,1.9.76,3.49,2.1,4.79,3.99.88,1.3,1.4,2.63,1.56,3.99.16,1.37.24,2.79.24,4.27v23.54h-4.17v-23.47c0-3.24-.72-5.67-2.15-7.29-1.44-1.62-3.82-2.43-7.15-2.43-1.3,0-2.48.2-3.54.59-1.07.39-2.03.91-2.88,1.56-.86.65-1.59,1.39-2.19,2.22-.6.83-1.07,1.71-1.39,2.64-.42,1.16-.67,2.27-.76,3.33-.09,1.07-.14,2.22-.14,3.47v19.38Z"/>
  </g>
  <g>
    <path class="cls-1" d="M240.17,143.79l-13.72,13.72c22.73,22.73,22.73,59.59,0,82.32-22.73,22.73-59.58,22.73-82.31,0-22.73-22.73-22.73-59.58,0-82.32h-.01s36.26-36.27,36.26-36.27l4.9-4.9v.02s.01-27.44.01-27.44l-54.88,54.88c-30.31,30.31-30.31,79.45,0,109.75,30.31,30.31,79.45,30.31,109.75,0,30.31-30.31,30.31-79.45,0-109.75"/>
    <path class="cls-1" d="M219.82,137.22c3.94-3.94,3.94-10.33,0-14.27-3.94-3.94-10.33-3.94-14.27,0-3.94,3.94-3.94,10.33,0,14.27,3.94,3.94,10.33,3.94,14.27,0"/>
  </g>
</svg>